<svg width="766" height="882" viewBox="0 0 766 882" fill="none" xmlns="http://www.w3.org/2000/svg">
<path d="M124.703 856.141C124.051 856.141 123.498 855.945 123.042 855.555C122.651 855.099 122.456 854.545 122.456 853.894V790.111C122.456 789.394 122.651 788.841 123.042 788.45C123.498 787.994 124.051 787.766 124.703 787.766H129.586C130.368 787.766 130.954 787.962 131.345 788.352C131.735 788.743 131.963 789.069 132.028 789.329L152.736 828.791L173.541 789.329C173.672 789.069 173.9 788.743 174.225 788.352C174.616 787.962 175.202 787.766 175.983 787.766H180.769C181.486 787.766 182.039 787.994 182.43 788.45C182.886 788.841 183.114 789.394 183.114 790.111V853.894C183.114 854.545 182.886 855.099 182.43 855.555C182.039 855.945 181.486 856.141 180.769 856.141H175.983C175.332 856.141 174.779 855.945 174.323 855.555C173.932 855.099 173.737 854.545 173.737 853.894V805.837L157.425 837.68C157.164 838.331 156.773 838.852 156.252 839.242C155.731 839.568 155.08 839.731 154.299 839.731H151.271C150.424 839.731 149.741 839.568 149.22 839.242C148.764 838.852 148.373 838.331 148.047 837.68L131.735 805.837V853.894C131.735 854.545 131.507 855.099 131.052 855.555C130.661 855.945 130.14 856.141 129.489 856.141H124.703ZM207.625 874.699C207.105 874.699 206.649 874.504 206.258 874.113C205.867 873.723 205.672 873.267 205.672 872.746C205.672 872.485 205.704 872.225 205.77 871.964C205.835 871.704 205.965 871.378 206.16 870.988L213.681 853.113L195.025 809.06C194.699 808.279 194.537 807.725 194.537 807.399C194.537 806.813 194.732 806.325 195.123 805.934C195.513 805.544 196.002 805.348 196.588 805.348H201.374C202.025 805.348 202.546 805.511 202.937 805.837C203.328 806.162 203.588 806.553 203.718 807.009L218.565 842.563L233.803 807.009C233.998 806.553 234.259 806.162 234.585 805.837C234.975 805.511 235.529 805.348 236.245 805.348H240.836C241.422 805.348 241.91 805.544 242.301 805.934C242.692 806.325 242.887 806.781 242.887 807.302C242.887 807.627 242.724 808.213 242.399 809.06L214.658 873.039C214.463 873.495 214.17 873.885 213.779 874.211C213.454 874.537 212.933 874.699 212.216 874.699H207.625ZM277.419 856.141C276.703 856.141 276.149 855.945 275.759 855.555C275.368 855.099 275.173 854.545 275.173 853.894V790.013C275.173 789.362 275.368 788.841 275.759 788.45C276.149 787.994 276.703 787.766 277.419 787.766H282.596C283.247 787.766 283.768 787.994 284.159 788.45C284.55 788.841 284.745 789.362 284.745 790.013V847.643H317.272C317.988 847.643 318.541 847.871 318.932 848.326C319.323 848.717 319.518 849.271 319.518 849.987V853.894C319.518 854.545 319.323 855.099 318.932 855.555C318.541 855.945 317.988 856.141 317.272 856.141H277.419ZM331.188 856.141C330.537 856.141 329.984 855.945 329.528 855.555C329.137 855.099 328.942 854.545 328.942 853.894V807.595C328.942 806.944 329.137 806.423 329.528 806.032C329.984 805.576 330.537 805.348 331.188 805.348H335.877C336.528 805.348 337.049 805.576 337.44 806.032C337.83 806.423 338.026 806.944 338.026 807.595V853.894C338.026 854.545 337.83 855.099 337.44 855.555C337.049 855.945 336.528 856.141 335.877 856.141H331.188ZM330.407 795.874C329.756 795.874 329.202 795.678 328.746 795.287C328.356 794.832 328.16 794.278 328.16 793.627V788.352C328.16 787.701 328.356 787.18 328.746 786.79C329.202 786.334 329.756 786.106 330.407 786.106H336.561C337.212 786.106 337.733 786.334 338.124 786.79C338.579 787.18 338.807 787.701 338.807 788.352V793.627C338.807 794.278 338.579 794.832 338.124 795.287C337.733 795.678 337.212 795.874 336.561 795.874H330.407ZM354.845 856.141C354.194 856.141 353.64 855.945 353.184 855.555C352.793 855.099 352.598 854.545 352.598 853.894V807.595C352.598 806.944 352.793 806.423 353.184 806.032C353.64 805.576 354.194 805.348 354.845 805.348H359.436C360.087 805.348 360.608 805.576 360.998 806.032C361.454 806.423 361.682 806.944 361.682 807.595V811.893C363.375 809.679 365.492 807.888 368.031 806.52C370.636 805.088 373.957 804.371 377.994 804.371C382.227 804.371 385.809 805.316 388.739 807.204C391.734 809.027 393.981 811.6 395.479 814.921C396.976 818.177 397.725 821.986 397.725 826.349V853.894C397.725 854.545 397.53 855.099 397.139 855.555C396.748 855.945 396.227 856.141 395.576 856.141H390.692C390.041 856.141 389.488 855.945 389.032 855.555C388.641 855.099 388.446 854.545 388.446 853.894V826.837C388.446 822.279 387.339 818.73 385.125 816.19C382.911 813.586 379.655 812.283 375.357 812.283C371.32 812.283 368.064 813.586 365.589 816.19C363.18 818.73 361.975 822.279 361.975 826.837V853.894C361.975 854.545 361.747 855.099 361.291 855.555C360.901 855.945 360.38 856.141 359.729 856.141H354.845ZM414.179 856.141C413.527 856.141 412.974 855.945 412.518 855.555C412.127 855.099 411.932 854.545 411.932 853.894V789.036C411.932 788.385 412.127 787.864 412.518 787.473C412.974 787.017 413.527 786.79 414.179 786.79H418.769C419.421 786.79 419.941 787.017 420.332 787.473C420.788 787.864 421.016 788.385 421.016 789.036V823.028L440.258 807.009C441.04 806.358 441.626 805.934 442.017 805.739C442.472 805.479 443.189 805.348 444.166 805.348H449.342C449.929 805.348 450.417 805.544 450.808 805.934C451.198 806.325 451.394 806.813 451.394 807.399C451.394 807.66 451.296 807.953 451.101 808.279C450.97 808.604 450.677 808.93 450.222 809.255L427.658 828.009L452.663 852.331C453.445 852.982 453.836 853.568 453.836 854.089C453.836 854.675 453.64 855.164 453.25 855.555C452.859 855.945 452.37 856.141 451.784 856.141H446.705C445.728 856.141 445.012 856.043 444.556 855.848C444.1 855.587 443.514 855.131 442.798 854.48L421.016 833.675V853.894C421.016 854.545 420.788 855.099 420.332 855.555C419.941 855.945 419.421 856.141 418.769 856.141H414.179ZM480.034 857.117C473.327 857.117 467.987 855.066 464.015 850.964C460.042 846.796 457.861 841.131 457.47 833.968C457.405 833.121 457.373 832.047 457.373 830.744C457.373 829.377 457.405 828.27 457.47 827.423C457.731 822.8 458.805 818.763 460.694 815.311C462.582 811.795 465.154 809.093 468.41 807.204C471.731 805.316 475.606 804.371 480.034 804.371C484.983 804.371 489.118 805.413 492.439 807.497C495.825 809.581 498.397 812.544 500.155 816.386C501.914 820.228 502.793 824.721 502.793 829.865V831.526C502.793 832.242 502.565 832.796 502.109 833.186C501.718 833.577 501.197 833.772 500.546 833.772H466.75C466.75 833.838 466.75 833.968 466.75 834.163C466.75 834.359 466.75 834.521 466.75 834.652C466.88 837.321 467.466 839.828 468.508 842.173C469.55 844.452 471.047 846.308 473.001 847.74C474.955 849.173 477.299 849.889 480.034 849.889C482.378 849.889 484.332 849.531 485.894 848.815C487.457 848.099 488.727 847.317 489.704 846.471C490.681 845.559 491.332 844.875 491.657 844.419C492.244 843.573 492.699 843.084 493.025 842.954C493.351 842.759 493.871 842.661 494.588 842.661H499.276C499.928 842.661 500.448 842.856 500.839 843.247C501.295 843.573 501.49 844.061 501.425 844.712C501.36 845.689 500.839 846.894 499.862 848.326C498.886 849.694 497.486 851.061 495.662 852.429C493.839 853.796 491.625 854.936 489.02 855.848C486.415 856.694 483.42 857.117 480.034 857.117ZM466.75 827.033H493.513V826.74C493.513 823.809 492.96 821.205 491.853 818.925C490.811 816.646 489.281 814.856 487.262 813.553C485.243 812.186 482.834 811.502 480.034 811.502C477.234 811.502 474.824 812.186 472.806 813.553C470.852 814.856 469.354 816.646 468.313 818.925C467.271 821.205 466.75 823.809 466.75 826.74V827.033ZM533.031 857.117C529.449 857.117 526.356 856.499 523.751 855.262C521.147 853.959 518.998 852.234 517.305 850.085C515.677 847.871 514.439 845.364 513.593 842.563C512.812 839.763 512.356 836.8 512.225 833.675C512.16 832.633 512.128 831.656 512.128 830.744C512.128 829.833 512.16 828.856 512.225 827.814C512.356 824.754 512.812 821.823 513.593 819.023C514.439 816.223 515.677 813.716 517.305 811.502C518.998 809.288 521.147 807.562 523.751 806.325C526.356 805.023 529.449 804.371 533.031 804.371C536.873 804.371 540.064 805.055 542.603 806.423C545.143 807.79 547.227 809.483 548.855 811.502V789.036C548.855 788.385 549.05 787.864 549.441 787.473C549.896 787.017 550.45 786.79 551.101 786.79H555.79C556.441 786.79 556.962 787.017 557.353 787.473C557.808 787.864 558.036 788.385 558.036 789.036V853.894C558.036 854.545 557.808 855.099 557.353 855.555C556.962 855.945 556.441 856.141 555.79 856.141H551.394C550.678 856.141 550.124 855.945 549.734 855.555C549.343 855.099 549.148 854.545 549.148 853.894V849.792C547.52 851.875 545.403 853.634 542.799 855.066C540.194 856.434 536.938 857.117 533.031 857.117ZM535.082 849.206C538.338 849.206 540.943 848.457 542.896 846.959C544.85 845.461 546.315 843.573 547.292 841.294C548.268 838.949 548.789 836.573 548.855 834.163C548.92 833.121 548.952 831.884 548.952 830.451C548.952 828.954 548.92 827.684 548.855 826.642C548.789 824.363 548.236 822.116 547.194 819.902C546.217 817.688 544.72 815.865 542.701 814.432C540.747 813 538.208 812.283 535.082 812.283C531.761 812.283 529.124 813.032 527.17 814.53C525.217 815.963 523.817 817.884 522.97 820.293C522.123 822.637 521.635 825.177 521.505 827.912C521.44 829.8 521.44 831.689 521.505 833.577C521.635 836.312 522.123 838.884 522.97 841.294C523.817 843.638 525.217 845.559 527.17 847.057C529.124 848.489 531.761 849.206 535.082 849.206ZM576.08 856.141C575.364 856.141 574.81 855.945 574.419 855.555C574.029 855.099 573.833 854.545 573.833 853.894V790.013C573.833 789.362 574.029 788.841 574.419 788.45C574.81 787.994 575.364 787.766 576.08 787.766H581.257C581.908 787.766 582.429 787.994 582.82 788.45C583.276 788.841 583.503 789.362 583.503 790.013V853.894C583.503 854.545 583.276 855.099 582.82 855.555C582.429 855.945 581.908 856.141 581.257 856.141H576.08ZM601.519 856.141C600.868 856.141 600.314 855.945 599.858 855.555C599.468 855.099 599.272 854.545 599.272 853.894V807.595C599.272 806.944 599.468 806.423 599.858 806.032C600.314 805.576 600.868 805.348 601.519 805.348H606.11C606.761 805.348 607.282 805.576 607.673 806.032C608.128 806.423 608.356 806.944 608.356 807.595V811.893C610.049 809.679 612.166 807.888 614.705 806.52C617.31 805.088 620.631 804.371 624.668 804.371C628.901 804.371 632.483 805.316 635.413 807.204C638.408 809.027 640.655 811.6 642.153 814.921C643.65 818.177 644.399 821.986 644.399 826.349V853.894C644.399 854.545 644.204 855.099 643.813 855.555C643.423 855.945 642.902 856.141 642.25 856.141H637.367C636.715 856.141 636.162 855.945 635.706 855.555C635.315 855.099 635.12 854.545 635.12 853.894V826.837C635.12 822.279 634.013 818.73 631.799 816.19C629.585 813.586 626.329 812.283 622.031 812.283C617.994 812.283 614.738 813.586 612.263 816.19C609.854 818.73 608.649 822.279 608.649 826.837V853.894C608.649 854.545 608.421 855.099 607.966 855.555C607.575 855.945 607.054 856.141 606.403 856.141H601.519Z" fill="#1F3E24"/>
<rect width="765.141" height="765.141" fill="white"/>
<path d="M43.4131 43.4102H63.9681V63.9652H43.4131V43.4102ZM63.9681 43.4102H84.5232V63.9652H63.9681V43.4102ZM84.5232 43.4102H105.078V63.9652H84.5232V43.4102ZM105.078 43.4102H125.633V63.9652H105.078V43.4102ZM125.633 43.4102H146.188V63.9652H125.633V43.4102ZM146.188 43.4102H166.743V63.9652H146.188V43.4102ZM166.743 43.4102H187.298V63.9652H166.743V43.4102ZM207.853 43.4102H228.409V63.9652H207.853V43.4102ZM331.184 43.4102H351.739V63.9652H331.184V43.4102ZM351.739 43.4102H372.294V63.9652H351.739V43.4102ZM372.294 43.4102H392.849V63.9652H372.294V43.4102ZM413.404 43.4102H433.959V63.9652H413.404V43.4102ZM495.624 43.4102H516.179V63.9652H495.624V43.4102ZM577.844 43.4102H598.399V63.9652H577.844V43.4102ZM598.399 43.4102H618.954V63.9652H598.399V43.4102ZM618.954 43.4102H639.51V63.9652H618.954V43.4102ZM639.51 43.4102H660.065V63.9652H639.51V43.4102ZM660.065 43.4102H680.62V63.9652H660.065V43.4102ZM680.62 43.4102H701.175V63.9652H680.62V43.4102ZM701.175 43.4102H721.73V63.9652H701.175V43.4102ZM43.4131 63.9652H63.9681V84.5203H43.4131V63.9652ZM166.743 63.9652H187.298V84.5203H166.743V63.9652ZM207.853 63.9652H228.409V84.5203H207.853V63.9652ZM248.964 63.9652H269.519V84.5203H248.964V63.9652ZM269.519 63.9652H290.074V84.5203H269.519V63.9652ZM351.739 63.9652H372.294V84.5203H351.739V63.9652ZM413.404 63.9652H433.959V84.5203H413.404V63.9652ZM475.069 63.9652H495.624V84.5203H475.069V63.9652ZM536.734 63.9652H557.289V84.5203H536.734V63.9652ZM577.844 63.9652H598.399V84.5203H577.844V63.9652ZM701.175 63.9652H721.73V84.5203H701.175V63.9652ZM43.4131 84.5203H63.9681V105.075H43.4131V84.5203ZM84.5232 84.5203H105.078V105.075H84.5232V84.5203ZM105.078 84.5203H125.633V105.075H105.078V84.5203ZM125.633 84.5203H146.188V105.075H125.633V84.5203ZM166.743 84.5203H187.298V105.075H166.743V84.5203ZM310.629 84.5203H331.184V105.075H310.629V84.5203ZM331.184 84.5203H351.739V105.075H331.184V84.5203ZM372.294 84.5203H392.849V105.075H372.294V84.5203ZM433.959 84.5203H454.514V105.075H433.959V84.5203ZM454.514 84.5203H475.069V105.075H454.514V84.5203ZM475.069 84.5203H495.624V105.075H475.069V84.5203ZM577.844 84.5203H598.399V105.075H577.844V84.5203ZM618.954 84.5203H639.51V105.075H618.954V84.5203ZM639.51 84.5203H660.065V105.075H639.51V84.5203ZM660.065 84.5203H680.62V105.075H660.065V84.5203ZM701.175 84.5203H721.73V105.075H701.175V84.5203ZM43.4131 105.075H63.9681V125.63H43.4131V105.075ZM84.5232 105.075H105.078V125.63H84.5232V105.075ZM105.078 105.075H125.633V125.63H105.078V105.075ZM125.633 105.075H146.188V125.63H125.633V105.075ZM166.743 105.075H187.298V125.63H166.743V105.075ZM228.409 105.075H248.964V125.63H228.409V105.075ZM248.964 105.075H269.519V125.63H248.964V105.075ZM331.184 105.075H351.739V125.63H331.184V105.075ZM351.739 105.075H372.294V125.63H351.739V105.075ZM392.849 105.075H413.404V125.63H392.849V105.075ZM413.404 105.075H433.959V125.63H413.404V105.075ZM433.959 105.075H454.514V125.63H433.959V105.075ZM475.069 105.075H495.624V125.63H475.069V105.075ZM516.179 105.075H536.734V125.63H516.179V105.075ZM577.844 105.075H598.399V125.63H577.844V105.075ZM618.954 105.075H639.51V125.63H618.954V105.075ZM639.51 105.075H660.065V125.63H639.51V105.075ZM660.065 105.075H680.62V125.63H660.065V105.075ZM701.175 105.075H721.73V125.63H701.175V105.075ZM43.4131 125.63H63.9681V146.185H43.4131V125.63ZM84.5232 125.63H105.078V146.185H84.5232V125.63ZM105.078 125.63H125.633V146.185H105.078V125.63ZM125.633 125.63H146.188V146.185H125.633V125.63ZM166.743 125.63H187.298V146.185H166.743V125.63ZM248.964 125.63H269.519V146.185H248.964V125.63ZM310.629 125.63H331.184V146.185H310.629V125.63ZM331.184 125.63H351.739V146.185H331.184V125.63ZM351.739 125.63H372.294V146.185H351.739V125.63ZM413.404 125.63H433.959V146.185H413.404V125.63ZM433.959 125.63H454.514V146.185H433.959V125.63ZM454.514 125.63H475.069V146.185H454.514V125.63ZM516.179 125.63H536.734V146.185H516.179V125.63ZM577.844 125.63H598.399V146.185H577.844V125.63ZM618.954 125.63H639.51V146.185H618.954V125.63ZM639.51 125.63H660.065V146.185H639.51V125.63ZM660.065 125.63H680.62V146.185H660.065V125.63ZM701.175 125.63H721.73V146.185H701.175V125.63ZM43.4131 146.185H63.9681V166.74H43.4131V146.185ZM166.743 146.185H187.298V166.74H166.743V146.185ZM228.409 146.185H248.964V166.74H228.409V146.185ZM290.074 146.185H310.629V166.74H290.074V146.185ZM310.629 146.185H331.184V166.74H310.629V146.185ZM331.184 146.185H351.739V166.74H331.184V146.185ZM351.739 146.185H372.294V166.74H351.739V146.185ZM392.849 146.185H413.404V166.74H392.849V146.185ZM413.404 146.185H433.959V166.74H413.404V146.185ZM536.734 146.185H557.289V166.74H536.734V146.185ZM577.844 146.185H598.399V166.74H577.844V146.185ZM701.175 146.185H721.73V166.74H701.175V146.185ZM43.4131 166.74H63.9681V187.296H43.4131V166.74ZM63.9681 166.74H84.5232V187.296H63.9681V166.74ZM84.5232 166.74H105.078V187.296H84.5232V166.74ZM105.078 166.74H125.633V187.296H105.078V166.74ZM125.633 166.74H146.188V187.296H125.633V166.74ZM146.188 166.74H166.743V187.296H146.188V166.74ZM166.743 166.74H187.298V187.296H166.743V166.74ZM207.853 166.74H228.409V187.296H207.853V166.74ZM248.964 166.74H269.519V187.296H248.964V166.74ZM290.074 166.74H310.629V187.296H290.074V166.74ZM331.184 166.74H351.739V187.296H331.184V166.74ZM372.294 166.74H392.849V187.296H372.294V166.74ZM413.404 166.74H433.959V187.296H413.404V166.74ZM454.514 166.74H475.069V187.296H454.514V166.74ZM495.624 166.74H516.179V187.296H495.624V166.74ZM536.734 166.74H557.289V187.296H536.734V166.74ZM577.844 166.74H598.399V187.296H577.844V166.74ZM598.399 166.74H618.954V187.296H598.399V166.74ZM618.954 166.74H639.51V187.296H618.954V166.74ZM639.51 166.74H660.065V187.296H639.51V166.74ZM660.065 166.74H680.62V187.296H660.065V166.74ZM680.62 166.74H701.175V187.296H680.62V166.74ZM701.175 166.74H721.73V187.296H701.175V166.74ZM248.964 187.296H269.519V207.851H248.964V187.296ZM269.519 187.296H290.074V207.851H269.519V187.296ZM290.074 187.296H310.629V207.851H290.074V187.296ZM351.739 187.296H372.294V207.851H351.739V187.296ZM433.959 187.296H454.514V207.851H433.959V187.296ZM454.514 187.296H475.069V207.851H454.514V187.296ZM495.624 187.296H516.179V207.851H495.624V187.296ZM516.179 187.296H536.734V207.851H516.179V187.296ZM536.734 187.296H557.289V207.851H536.734V187.296ZM63.9681 207.851H84.5232V228.406H63.9681V207.851ZM166.743 207.851H187.298V228.406H166.743V207.851ZM187.298 207.851H207.853V228.406H187.298V207.851ZM207.853 207.851H228.409V228.406H207.853V207.851ZM248.964 207.851H269.519V228.406H248.964V207.851ZM269.519 207.851H290.074V228.406H269.519V207.851ZM310.629 207.851H331.184V228.406H310.629V207.851ZM372.294 207.851H392.849V228.406H372.294V207.851ZM392.849 207.851H413.404V228.406H392.849V207.851ZM433.959 207.851H454.514V228.406H433.959V207.851ZM495.624 207.851H516.179V228.406H495.624V207.851ZM516.179 207.851H536.734V228.406H516.179V207.851ZM536.734 207.851H557.289V228.406H536.734V207.851ZM557.289 207.851H577.844V228.406H557.289V207.851ZM680.62 207.851H701.175V228.406H680.62V207.851ZM701.175 207.851H721.73V228.406H701.175V207.851ZM43.4131 228.406H63.9681V248.961H43.4131V228.406ZM105.078 228.406H125.633V248.961H105.078V228.406ZM207.853 228.406H228.409V248.961H207.853V228.406ZM248.964 228.406H269.519V248.961H248.964V228.406ZM269.519 228.406H290.074V248.961H269.519V228.406ZM331.184 228.406H351.739V248.961H331.184V228.406ZM351.739 228.406H372.294V248.961H351.739V228.406ZM392.849 228.406H413.404V248.961H392.849V228.406ZM413.404 228.406H433.959V248.961H413.404V228.406ZM433.959 228.406H454.514V248.961H433.959V228.406ZM454.514 228.406H475.069V248.961H454.514V228.406ZM495.624 228.406H516.179V248.961H495.624V228.406ZM516.179 228.406H536.734V248.961H516.179V228.406ZM618.954 228.406H639.51V248.961H618.954V228.406ZM639.51 228.406H660.065V248.961H639.51V228.406ZM660.065 228.406H680.62V248.961H660.065V228.406ZM84.5232 248.961H105.078V269.516H84.5232V248.961ZM125.633 248.961H146.188V269.516H125.633V248.961ZM166.743 248.961H187.298V269.516H166.743V248.961ZM228.409 248.961H248.964V269.516H228.409V248.961ZM269.519 248.961H290.074V269.516H269.519V248.961ZM331.184 248.961H351.739V269.516H331.184V248.961ZM392.849 248.961H413.404V269.516H392.849V248.961ZM475.069 248.961H495.624V269.516H475.069V248.961ZM536.734 248.961H557.289V269.516H536.734V248.961ZM618.954 248.961H639.51V269.516H618.954V248.961ZM660.065 248.961H680.62V269.516H660.065V248.961ZM680.62 248.961H701.175V269.516H680.62V248.961ZM43.4131 269.516H63.9681V290.071H43.4131V269.516ZM105.078 269.516H125.633V290.071H105.078V269.516ZM125.633 269.516H146.188V290.071H125.633V269.516ZM146.188 269.516H166.743V290.071H146.188V269.516ZM207.853 269.516H228.409V290.071H207.853V269.516ZM228.409 269.516H248.964V290.071H228.409V269.516ZM248.964 269.516H269.519V290.071H248.964V269.516ZM310.629 269.516H331.184V290.071H310.629V269.516ZM351.739 269.516H372.294V290.071H351.739V269.516ZM372.294 269.516H392.849V290.071H372.294V269.516ZM433.959 269.516H454.514V290.071H433.959V269.516ZM454.514 269.516H475.069V290.071H454.514V269.516ZM495.624 269.516H516.179V290.071H495.624V269.516ZM516.179 269.516H536.734V290.071H516.179V269.516ZM557.289 269.516H577.844V290.071H557.289V269.516ZM598.399 269.516H618.954V290.071H598.399V269.516ZM618.954 269.516H639.51V290.071H618.954V269.516ZM639.51 269.516H660.065V290.071H639.51V269.516ZM660.065 269.516H680.62V290.071H660.065V269.516ZM680.62 269.516H701.175V290.071H680.62V269.516ZM701.175 269.516H721.73V290.071H701.175V269.516ZM84.5232 290.071H105.078V310.626H84.5232V290.071ZM125.633 290.071H146.188V310.626H125.633V290.071ZM166.743 290.071H187.298V310.626H166.743V290.071ZM187.298 290.071H207.853V310.626H187.298V290.071ZM228.409 290.071H248.964V310.626H228.409V290.071ZM351.739 290.071H372.294V310.626H351.739V290.071ZM372.294 290.071H392.849V310.626H372.294V290.071ZM392.849 290.071H413.404V310.626H392.849V290.071ZM413.404 290.071H433.959V310.626H413.404V290.071ZM454.514 290.071H475.069V310.626H454.514V290.071ZM577.844 290.071H598.399V310.626H577.844V290.071ZM598.399 290.071H618.954V310.626H598.399V290.071ZM63.9681 310.626H84.5232V331.181H63.9681V310.626ZM146.188 310.626H166.743V331.181H146.188V310.626ZM228.409 310.626H248.964V331.181H228.409V310.626ZM248.964 310.626H269.519V331.181H248.964V310.626ZM290.074 310.626H310.629V331.181H290.074V310.626ZM372.294 310.626H392.849V331.181H372.294V310.626ZM392.849 310.626H413.404V331.181H392.849V310.626ZM413.404 310.626H433.959V331.181H413.404V310.626ZM433.959 310.626H454.514V331.181H433.959V310.626ZM454.514 310.626H475.069V331.181H454.514V310.626ZM475.069 310.626H495.624V331.181H475.069V310.626ZM516.179 310.626H536.734V331.181H516.179V310.626ZM577.844 310.626H598.399V331.181H577.844V310.626ZM598.399 310.626H618.954V331.181H598.399V310.626ZM680.62 310.626H701.175V331.181H680.62V310.626ZM701.175 310.626H721.73V331.181H701.175V310.626ZM84.5232 331.181H105.078V351.736H84.5232V331.181ZM146.188 331.181H166.743V351.736H146.188V331.181ZM166.743 331.181H187.298V351.736H166.743V331.181ZM187.298 331.181H207.853V351.736H187.298V331.181ZM207.853 331.181H228.409V351.736H207.853V331.181ZM269.519 331.181H290.074V351.736H269.519V331.181ZM290.074 331.181H310.629V351.736H290.074V331.181ZM331.184 331.181H351.739V351.736H331.184V331.181ZM392.849 331.181H413.404V351.736H392.849V331.181ZM454.514 331.181H475.069V351.736H454.514V331.181ZM495.624 331.181H516.179V351.736H495.624V331.181ZM557.289 331.181H577.844V351.736H557.289V331.181ZM577.844 331.181H598.399V351.736H577.844V331.181ZM598.399 331.181H618.954V351.736H598.399V331.181ZM639.51 331.181H660.065V351.736H639.51V331.181ZM660.065 331.181H680.62V351.736H660.065V331.181ZM680.62 331.181H701.175V351.736H680.62V331.181ZM43.4131 351.736H63.9681V372.291H43.4131V351.736ZM63.9681 351.736H84.5232V372.291H63.9681V351.736ZM84.5232 351.736H105.078V372.291H84.5232V351.736ZM146.188 351.736H166.743V372.291H146.188V351.736ZM228.409 351.736H248.964V372.291H228.409V351.736ZM248.964 351.736H269.519V372.291H248.964V351.736ZM351.739 351.736H372.294V372.291H351.739V351.736ZM372.294 351.736H392.849V372.291H372.294V351.736ZM392.849 351.736H413.404V372.291H392.849V351.736ZM413.404 351.736H433.959V372.291H413.404V351.736ZM433.959 351.736H454.514V372.291H433.959V351.736ZM495.624 351.736H516.179V372.291H495.624V351.736ZM557.289 351.736H577.844V372.291H557.289V351.736ZM639.51 351.736H660.065V372.291H639.51V351.736ZM660.065 351.736H680.62V372.291H660.065V351.736ZM701.175 351.736H721.73V372.291H701.175V351.736ZM43.4131 372.291H63.9681V392.846H43.4131V372.291ZM125.633 372.291H146.188V392.846H125.633V372.291ZM146.188 372.291H166.743V392.846H146.188V372.291ZM166.743 372.291H187.298V392.846H166.743V372.291ZM187.298 372.291H207.853V392.846H187.298V372.291ZM207.853 372.291H228.409V392.846H207.853V372.291ZM228.409 372.291H248.964V392.846H228.409V372.291ZM248.964 372.291H269.519V392.846H248.964V372.291ZM351.739 372.291H372.294V392.846H351.739V372.291ZM372.294 372.291H392.849V392.846H372.294V372.291ZM433.959 372.291H454.514V392.846H433.959V372.291ZM495.624 372.291H516.179V392.846H495.624V372.291ZM536.734 372.291H557.289V392.846H536.734V372.291ZM557.289 372.291H577.844V392.846H557.289V372.291ZM598.399 372.291H618.954V392.846H598.399V372.291ZM618.954 372.291H639.51V392.846H618.954V372.291ZM701.175 372.291H721.73V392.846H701.175V372.291ZM63.9681 392.846H84.5232V413.401H63.9681V392.846ZM84.5232 392.846H105.078V413.401H84.5232V392.846ZM105.078 392.846H125.633V413.401H105.078V392.846ZM187.298 392.846H207.853V413.401H187.298V392.846ZM228.409 392.846H248.964V413.401H228.409V392.846ZM290.074 392.846H310.629V413.401H290.074V392.846ZM331.184 392.846H351.739V413.401H331.184V392.846ZM351.739 392.846H372.294V413.401H351.739V392.846ZM372.294 392.846H392.849V413.401H372.294V392.846ZM413.404 392.846H433.959V413.401H413.404V392.846ZM433.959 392.846H454.514V413.401H433.959V392.846ZM454.514 392.846H475.069V413.401H454.514V392.846ZM475.069 392.846H495.624V413.401H475.069V392.846ZM516.179 392.846H536.734V413.401H516.179V392.846ZM536.734 392.846H557.289V413.401H536.734V392.846ZM557.289 392.846H577.844V413.401H557.289V392.846ZM577.844 392.846H598.399V413.401H577.844V392.846ZM639.51 392.846H660.065V413.401H639.51V392.846ZM660.065 392.846H680.62V413.401H660.065V392.846ZM701.175 392.846H721.73V413.401H701.175V392.846ZM43.4131 413.401H63.9681V433.956H43.4131V413.401ZM146.188 413.401H166.743V433.956H146.188V413.401ZM166.743 413.401H187.298V433.956H166.743V413.401ZM187.298 413.401H207.853V433.956H187.298V413.401ZM207.853 413.401H228.409V433.956H207.853V413.401ZM228.409 413.401H248.964V433.956H228.409V413.401ZM248.964 413.401H269.519V433.956H248.964V413.401ZM269.519 413.401H290.074V433.956H269.519V413.401ZM310.629 413.401H331.184V433.956H310.629V413.401ZM331.184 413.401H351.739V433.956H331.184V413.401ZM351.739 413.401H372.294V433.956H351.739V413.401ZM372.294 413.401H392.849V433.956H372.294V413.401ZM413.404 413.401H433.959V433.956H413.404V413.401ZM433.959 413.401H454.514V433.956H433.959V413.401ZM475.069 413.401H495.624V433.956H475.069V413.401ZM516.179 413.401H536.734V433.956H516.179V413.401ZM598.399 413.401H618.954V433.956H598.399V413.401ZM639.51 413.401H660.065V433.956H639.51V413.401ZM660.065 413.401H680.62V433.956H660.065V413.401ZM680.62 413.401H701.175V433.956H680.62V413.401ZM701.175 413.401H721.73V433.956H701.175V413.401ZM84.5232 433.956H105.078V454.511H84.5232V433.956ZM105.078 433.956H125.633V454.511H105.078V433.956ZM125.633 433.956H146.188V454.511H125.633V433.956ZM248.964 433.956H269.519V454.511H248.964V433.956ZM290.074 433.956H310.629V454.511H290.074V433.956ZM310.629 433.956H331.184V454.511H310.629V433.956ZM392.849 433.956H413.404V454.511H392.849V433.956ZM413.404 433.956H433.959V454.511H413.404V433.956ZM495.624 433.956H516.179V454.511H495.624V433.956ZM516.179 433.956H536.734V454.511H516.179V433.956ZM618.954 433.956H639.51V454.511H618.954V433.956ZM639.51 433.956H660.065V454.511H639.51V433.956ZM660.065 433.956H680.62V454.511H660.065V433.956ZM680.62 433.956H701.175V454.511H680.62V433.956ZM63.9681 454.511H84.5232V475.066H63.9681V454.511ZM84.5232 454.511H105.078V475.066H84.5232V454.511ZM105.078 454.511H125.633V475.066H105.078V454.511ZM125.633 454.511H146.188V475.066H125.633V454.511ZM146.188 454.511H166.743V475.066H146.188V454.511ZM166.743 454.511H187.298V475.066H166.743V454.511ZM207.853 454.511H228.409V475.066H207.853V454.511ZM269.519 454.511H290.074V475.066H269.519V454.511ZM290.074 454.511H310.629V475.066H290.074V454.511ZM331.184 454.511H351.739V475.066H331.184V454.511ZM351.739 454.511H372.294V475.066H351.739V454.511ZM372.294 454.511H392.849V475.066H372.294V454.511ZM392.849 454.511H413.404V475.066H392.849V454.511ZM413.404 454.511H433.959V475.066H413.404V454.511ZM433.959 454.511H454.514V475.066H433.959V454.511ZM495.624 454.511H516.179V475.066H495.624V454.511ZM557.289 454.511H577.844V475.066H557.289V454.511ZM598.399 454.511H618.954V475.066H598.399V454.511ZM618.954 454.511H639.51V475.066H618.954V454.511ZM639.51 454.511H660.065V475.066H639.51V454.511ZM680.62 454.511H701.175V475.066H680.62V454.511ZM701.175 454.511H721.73V475.066H701.175V454.511ZM43.4131 475.066H63.9681V495.621H43.4131V475.066ZM63.9681 475.066H84.5232V495.621H63.9681V475.066ZM84.5232 475.066H105.078V495.621H84.5232V475.066ZM105.078 475.066H125.633V495.621H105.078V475.066ZM125.633 475.066H146.188V495.621H125.633V475.066ZM146.188 475.066H166.743V495.621H146.188V475.066ZM187.298 475.066H207.853V495.621H187.298V475.066ZM269.519 475.066H290.074V495.621H269.519V475.066ZM290.074 475.066H310.629V495.621H290.074V475.066ZM331.184 475.066H351.739V495.621H331.184V475.066ZM433.959 475.066H454.514V495.621H433.959V475.066ZM475.069 475.066H495.624V495.621H475.069V475.066ZM495.624 475.066H516.179V495.621H495.624V475.066ZM516.179 475.066H536.734V495.621H516.179V475.066ZM598.399 475.066H618.954V495.621H598.399V475.066ZM618.954 475.066H639.51V495.621H618.954V475.066ZM639.51 475.066H660.065V495.621H639.51V475.066ZM43.4131 495.621H63.9681V516.176H43.4131V495.621ZM84.5232 495.621H105.078V516.176H84.5232V495.621ZM105.078 495.621H125.633V516.176H105.078V495.621ZM125.633 495.621H146.188V516.176H125.633V495.621ZM146.188 495.621H166.743V516.176H146.188V495.621ZM166.743 495.621H187.298V516.176H166.743V495.621ZM187.298 495.621H207.853V516.176H187.298V495.621ZM207.853 495.621H228.409V516.176H207.853V495.621ZM290.074 495.621H310.629V516.176H290.074V495.621ZM331.184 495.621H351.739V516.176H331.184V495.621ZM413.404 495.621H433.959V516.176H413.404V495.621ZM557.289 495.621H577.844V516.176H557.289V495.621ZM618.954 495.621H639.51V516.176H618.954V495.621ZM680.62 495.621H701.175V516.176H680.62V495.621ZM43.4131 516.176H63.9681V536.731H43.4131V516.176ZM187.298 516.176H207.853V536.731H187.298V516.176ZM207.853 516.176H228.409V536.731H207.853V516.176ZM228.409 516.176H248.964V536.731H228.409V516.176ZM269.519 516.176H290.074V536.731H269.519V516.176ZM331.184 516.176H351.739V536.731H331.184V516.176ZM413.404 516.176H433.959V536.731H413.404V516.176ZM433.959 516.176H454.514V536.731H433.959V516.176ZM495.624 516.176H516.179V536.731H495.624V516.176ZM516.179 516.176H536.734V536.731H516.179V516.176ZM536.734 516.176H557.289V536.731H536.734V516.176ZM557.289 516.176H577.844V536.731H557.289V516.176ZM577.844 516.176H598.399V536.731H577.844V516.176ZM618.954 516.176H639.51V536.731H618.954V516.176ZM660.065 516.176H680.62V536.731H660.065V516.176ZM701.175 516.176H721.73V536.731H701.175V516.176ZM43.4131 536.731H63.9681V557.286H43.4131V536.731ZM63.9681 536.731H84.5232V557.286H63.9681V536.731ZM84.5232 536.731H105.078V557.286H84.5232V536.731ZM105.078 536.731H125.633V557.286H105.078V536.731ZM125.633 536.731H146.188V557.286H125.633V536.731ZM166.743 536.731H187.298V557.286H166.743V536.731ZM228.409 536.731H248.964V557.286H228.409V536.731ZM248.964 536.731H269.519V557.286H248.964V536.731ZM269.519 536.731H290.074V557.286H269.519V536.731ZM290.074 536.731H310.629V557.286H290.074V536.731ZM331.184 536.731H351.739V557.286H331.184V536.731ZM351.739 536.731H372.294V557.286H351.739V536.731ZM372.294 536.731H392.849V557.286H372.294V536.731ZM392.849 536.731H413.404V557.286H392.849V536.731ZM413.404 536.731H433.959V557.286H413.404V536.731ZM433.959 536.731H454.514V557.286H433.959V536.731ZM454.514 536.731H475.069V557.286H454.514V536.731ZM536.734 536.731H557.289V557.286H536.734V536.731ZM557.289 536.731H577.844V557.286H557.289V536.731ZM577.844 536.731H598.399V557.286H577.844V536.731ZM598.399 536.731H618.954V557.286H598.399V536.731ZM618.954 536.731H639.51V557.286H618.954V536.731ZM639.51 536.731H660.065V557.286H639.51V536.731ZM207.853 557.286H228.409V577.841H207.853V557.286ZM228.409 557.286H248.964V577.841H228.409V557.286ZM351.739 557.286H372.294V577.841H351.739V557.286ZM413.404 557.286H433.959V577.841H413.404V557.286ZM433.959 557.286H454.514V577.841H433.959V557.286ZM454.514 557.286H475.069V577.841H454.514V557.286ZM516.179 557.286H536.734V577.841H516.179V557.286ZM536.734 557.286H557.289V577.841H536.734V557.286ZM618.954 557.286H639.51V577.841H618.954V557.286ZM660.065 557.286H680.62V577.841H660.065V557.286ZM701.175 557.286H721.73V577.841H701.175V557.286ZM43.4131 577.841H63.9681V598.397H43.4131V577.841ZM63.9681 577.841H84.5232V598.397H63.9681V577.841ZM84.5232 577.841H105.078V598.397H84.5232V577.841ZM105.078 577.841H125.633V598.397H105.078V577.841ZM125.633 577.841H146.188V598.397H125.633V577.841ZM146.188 577.841H166.743V598.397H146.188V577.841ZM166.743 577.841H187.298V598.397H166.743V577.841ZM207.853 577.841H228.409V598.397H207.853V577.841ZM228.409 577.841H248.964V598.397H228.409V577.841ZM248.964 577.841H269.519V598.397H248.964V577.841ZM269.519 577.841H290.074V598.397H269.519V577.841ZM392.849 577.841H413.404V598.397H392.849V577.841ZM475.069 577.841H495.624V598.397H475.069V577.841ZM516.179 577.841H536.734V598.397H516.179V577.841ZM536.734 577.841H557.289V598.397H536.734V577.841ZM577.844 577.841H598.399V598.397H577.844V577.841ZM618.954 577.841H639.51V598.397H618.954V577.841ZM660.065 577.841H680.62V598.397H660.065V577.841ZM680.62 577.841H701.175V598.397H680.62V577.841ZM43.4131 598.397H63.9681V618.952H43.4131V598.397ZM166.743 598.397H187.298V618.952H166.743V598.397ZM228.409 598.397H248.964V618.952H228.409V598.397ZM248.964 598.397H269.519V618.952H248.964V598.397ZM290.074 598.397H310.629V618.952H290.074V598.397ZM310.629 598.397H331.184V618.952H310.629V598.397ZM351.739 598.397H372.294V618.952H351.739V598.397ZM372.294 598.397H392.849V618.952H372.294V598.397ZM516.179 598.397H536.734V618.952H516.179V598.397ZM536.734 598.397H557.289V618.952H536.734V598.397ZM618.954 598.397H639.51V618.952H618.954V598.397ZM639.51 598.397H660.065V618.952H639.51V598.397ZM660.065 598.397H680.62V618.952H660.065V598.397ZM680.62 598.397H701.175V618.952H680.62V598.397ZM43.4131 618.952H63.9681V639.507H43.4131V618.952ZM84.5232 618.952H105.078V639.507H84.5232V618.952ZM105.078 618.952H125.633V639.507H105.078V618.952ZM125.633 618.952H146.188V639.507H125.633V618.952ZM166.743 618.952H187.298V639.507H166.743V618.952ZM228.409 618.952H248.964V639.507H228.409V618.952ZM310.629 618.952H331.184V639.507H310.629V618.952ZM331.184 618.952H351.739V639.507H331.184V618.952ZM372.294 618.952H392.849V639.507H372.294V618.952ZM392.849 618.952H413.404V639.507H392.849V618.952ZM413.404 618.952H433.959V639.507H413.404V618.952ZM454.514 618.952H475.069V639.507H454.514V618.952ZM495.624 618.952H516.179V639.507H495.624V618.952ZM536.734 618.952H557.289V639.507H536.734V618.952ZM557.289 618.952H577.844V639.507H557.289V618.952ZM577.844 618.952H598.399V639.507H577.844V618.952ZM598.399 618.952H618.954V639.507H598.399V618.952ZM618.954 618.952H639.51V639.507H618.954V618.952ZM639.51 618.952H660.065V639.507H639.51V618.952ZM680.62 618.952H701.175V639.507H680.62V618.952ZM701.175 618.952H721.73V639.507H701.175V618.952ZM43.4131 639.507H63.9681V660.062H43.4131V639.507ZM84.5232 639.507H105.078V660.062H84.5232V639.507ZM105.078 639.507H125.633V660.062H105.078V639.507ZM125.633 639.507H146.188V660.062H125.633V639.507ZM166.743 639.507H187.298V660.062H166.743V639.507ZM310.629 639.507H331.184V660.062H310.629V639.507ZM331.184 639.507H351.739V660.062H331.184V639.507ZM413.404 639.507H433.959V660.062H413.404V639.507ZM433.959 639.507H454.514V660.062H433.959V639.507ZM454.514 639.507H475.069V660.062H454.514V639.507ZM516.179 639.507H536.734V660.062H516.179V639.507ZM557.289 639.507H577.844V660.062H557.289V639.507ZM598.399 639.507H618.954V660.062H598.399V639.507ZM618.954 639.507H639.51V660.062H618.954V639.507ZM639.51 639.507H660.065V660.062H639.51V639.507ZM701.175 639.507H721.73V660.062H701.175V639.507ZM43.4131 660.062H63.9681V680.617H43.4131V660.062ZM84.5232 660.062H105.078V680.617H84.5232V660.062ZM105.078 660.062H125.633V680.617H105.078V660.062ZM125.633 660.062H146.188V680.617H125.633V660.062ZM166.743 660.062H187.298V680.617H166.743V660.062ZM290.074 660.062H310.629V680.617H290.074V660.062ZM310.629 660.062H331.184V680.617H310.629V660.062ZM331.184 660.062H351.739V680.617H331.184V660.062ZM351.739 660.062H372.294V680.617H351.739V660.062ZM392.849 660.062H413.404V680.617H392.849V660.062ZM413.404 660.062H433.959V680.617H413.404V660.062ZM433.959 660.062H454.514V680.617H433.959V660.062ZM454.514 660.062H475.069V680.617H454.514V660.062ZM475.069 660.062H495.624V680.617H475.069V660.062ZM536.734 660.062H557.289V680.617H536.734V660.062ZM598.399 660.062H618.954V680.617H598.399V660.062ZM618.954 660.062H639.51V680.617H618.954V660.062ZM680.62 660.062H701.175V680.617H680.62V660.062ZM701.175 660.062H721.73V680.617H701.175V660.062ZM43.4131 680.617H63.9681V701.172H43.4131V680.617ZM166.743 680.617H187.298V701.172H166.743V680.617ZM207.853 680.617H228.409V701.172H207.853V680.617ZM228.409 680.617H248.964V701.172H228.409V680.617ZM248.964 680.617H269.519V701.172H248.964V680.617ZM290.074 680.617H310.629V701.172H290.074V680.617ZM310.629 680.617H331.184V701.172H310.629V680.617ZM351.739 680.617H372.294V701.172H351.739V680.617ZM433.959 680.617H454.514V701.172H433.959V680.617ZM454.514 680.617H475.069V701.172H454.514V680.617ZM495.624 680.617H516.179V701.172H495.624V680.617ZM557.289 680.617H577.844V701.172H557.289V680.617ZM598.399 680.617H618.954V701.172H598.399V680.617ZM618.954 680.617H639.51V701.172H618.954V680.617ZM639.51 680.617H660.065V701.172H639.51V680.617ZM660.065 680.617H680.62V701.172H660.065V680.617ZM43.4131 701.172H63.9681V721.727H43.4131V701.172ZM63.9681 701.172H84.5232V721.727H63.9681V701.172ZM84.5232 701.172H105.078V721.727H84.5232V701.172ZM105.078 701.172H125.633V721.727H105.078V701.172ZM125.633 701.172H146.188V721.727H125.633V701.172ZM146.188 701.172H166.743V721.727H146.188V701.172ZM166.743 701.172H187.298V721.727H166.743V701.172ZM228.409 701.172H248.964V721.727H228.409V701.172ZM331.184 701.172H351.739V721.727H331.184V701.172ZM351.739 701.172H372.294V721.727H351.739V701.172ZM372.294 701.172H392.849V721.727H372.294V701.172ZM433.959 701.172H454.514V721.727H433.959V701.172ZM495.624 701.172H516.179V721.727H495.624V701.172ZM516.179 701.172H536.734V721.727H516.179V701.172ZM536.734 701.172H557.289V721.727H536.734V701.172ZM557.289 701.172H577.844V721.727H557.289V701.172ZM598.399 701.172H618.954V721.727H598.399V701.172ZM680.62 701.172H701.175V721.727H680.62V701.172Z" fill="black"/>
</svg>
